<svg id="Ebene_1" data-name="Ebene 1" xmlns="http://www.w3.org/2000/svg" viewBox="0 0 257 101"><defs><style>.cls-1{fill:#fece00;}.cls-2{fill:#0bda7d;}.cls-3{fill:#2962fa;}.cls-4{fill:#ff3e50;}.cls-5{fill:#fff;}</style></defs><rect class="cls-1" y="18" width="18" height="36"/><rect x="18" y="18" width="18" height="18"/><rect class="cls-2" x="36" width="18" height="36"/><rect class="cls-3" width="18" height="18"/><rect class="cls-4" x="36" y="36" width="18" height="18"/><polygon points="97.81 8.69 88.1 8.69 88.1 -0.01 84.01 -0.01 84.01 21.02 88.1 21.02 88.1 12.29 97.81 12.29 97.81 21.02 101.9 21.02 101.9 -0.01 97.81 -0.01 97.81 8.69"/><path d="M120.54,7.26a7.9,7.9,0,0,0-2.69-1.78,10.13,10.13,0,0,0-7.14,0,8,8,0,0,0-5,7.44v.61a8,8,0,0,0,.56,3,7.68,7.68,0,0,0,1.65,2.58,7.9,7.9,0,0,0,2.68,1.8,10.4,10.4,0,0,0,7.29,0,7.9,7.9,0,0,0,2.68-1.8,7.68,7.68,0,0,0,1.65-2.58,8,8,0,0,0,.57-3v-.61a8.32,8.32,0,0,0-.58-3.06A7.93,7.93,0,0,0,120.54,7.26Zm-2.26,8.47a4.07,4.07,0,0,1-1.52,1.76,5.06,5.06,0,0,1-5,0,4.25,4.25,0,0,1-1.54-1.76,5.83,5.83,0,0,1-.53-2.52,5.63,5.63,0,0,1,.55-2.55,4.22,4.22,0,0,1,1.57-1.75,4.87,4.87,0,0,1,4.86,0,4.13,4.13,0,0,1,1.56,1.75,5.9,5.9,0,0,1,.53,2.55A5.82,5.82,0,0,1,118.28,15.73Z"/><path d="M136.24,16.7a3.09,3.09,0,0,1-1.2,1,3.93,3.93,0,0,1-1.78.38,3.71,3.71,0,0,1-2.26-.64,3.64,3.64,0,0,1-1.3-1.75,7.14,7.14,0,0,1-.42-2.51,7,7,0,0,1,.44-2.55,3.52,3.52,0,0,1,3.51-2.37,3.43,3.43,0,0,1,2.4.8,3.17,3.17,0,0,1,1,2h3.89a6.43,6.43,0,0,0-1.08-3.28,6.69,6.69,0,0,0-2.58-2.21,8.33,8.33,0,0,0-3.66-.79,8.22,8.22,0,0,0-3.44.68,7.28,7.28,0,0,0-2.49,1.81,7.51,7.51,0,0,0-1.51,2.59,9.15,9.15,0,0,0-.51,3v.55a9,9,0,0,0,.49,2.94A7.86,7.86,0,0,0,127.25,19a7.31,7.31,0,0,0,2.48,1.84,9.16,9.16,0,0,0,7.23-.11,6.86,6.86,0,0,0,2.62-2.23,6.42,6.42,0,0,0,1.11-3.33H136.8A3.49,3.49,0,0,1,136.24,16.7Z"/><path d="M152.81,4.89h-.17a5.11,5.11,0,0,0-3,.86,5.18,5.18,0,0,0-1.71,2.31V0h-4V21h4V12a3.53,3.53,0,0,1,.91-2.52,3.1,3.1,0,0,1,2.37-1,3,3,0,0,1,2.23.86,3.22,3.22,0,0,1,.85,2.36V21h4V12.09a8.78,8.78,0,0,0-1.39-5.36A4.75,4.75,0,0,0,152.81,4.89Z"/><path d="M173.48,13.07a8.22,8.22,0,0,0-4.34-1.53l-1.38-.14a4.08,4.08,0,0,1-1.83-.55,1.34,1.34,0,0,1-.56-1.15,1.5,1.5,0,0,1,.69-1.27,3.4,3.4,0,0,1,2-.49,3.45,3.45,0,0,1,2.16.58A1.87,1.87,0,0,1,171,9.9h3.6a4.51,4.51,0,0,0-1.88-3.72,7.9,7.9,0,0,0-4.66-1.26,8.76,8.76,0,0,0-3.27.56,4.92,4.92,0,0,0-2.23,1.65,4.47,4.47,0,0,0-.81,2.71,4,4,0,0,0,1.41,3.23,7.42,7.42,0,0,0,4,1.5l1.39.14a4.86,4.86,0,0,1,2.2.6,1.46,1.46,0,0,1,.65,1.24,1.59,1.59,0,0,1-.85,1.41,4.34,4.34,0,0,1-2.29.52,4,4,0,0,1-2.54-.66,2.24,2.24,0,0,1-.89-1.47h-3.6a4.71,4.71,0,0,0,1.92,3.79,8.28,8.28,0,0,0,5.05,1.37,9.41,9.41,0,0,0,3.6-.64,5.51,5.51,0,0,0,2.38-1.77,4.4,4.4,0,0,0,.85-2.69A4,4,0,0,0,173.48,13.07Z"/><path d="M188.28,16.7a3.13,3.13,0,0,1-1.19,1,4,4,0,0,1-1.79.38,3.71,3.71,0,0,1-2.26-.64,3.64,3.64,0,0,1-1.3-1.75,7.15,7.15,0,0,1-.41-2.51,7,7,0,0,1,.43-2.55,3.74,3.74,0,0,1,1.31-1.74,3.67,3.67,0,0,1,2.2-.63,3.47,3.47,0,0,1,2.41.8,3.21,3.21,0,0,1,1,2h3.89a6.43,6.43,0,0,0-1.08-3.28,6.69,6.69,0,0,0-2.58-2.21,8.33,8.33,0,0,0-3.66-.79,8.25,8.25,0,0,0-3.44.68,7.28,7.28,0,0,0-2.49,1.81,7.67,7.67,0,0,0-1.51,2.59,9.15,9.15,0,0,0-.51,3v.55a9.25,9.25,0,0,0,.49,2.94A7.71,7.71,0,0,0,179.3,19a7.18,7.18,0,0,0,2.47,1.84,9.16,9.16,0,0,0,7.23-.11,6.79,6.79,0,0,0,2.62-2.23,6.42,6.42,0,0,0,1.11-3.33h-3.89A3.37,3.37,0,0,1,188.28,16.7Z"/><path d="M204.85,4.89h-.17a5.11,5.11,0,0,0-3,.86,5.18,5.18,0,0,0-1.71,2.31V0h-4V21h4V12a3.53,3.53,0,0,1,.91-2.52,3.1,3.1,0,0,1,2.37-1,3,3,0,0,1,2.23.86,3.22,3.22,0,0,1,.85,2.36V21h4V12.09a8.85,8.85,0,0,0-1.38-5.36A4.78,4.78,0,0,0,204.85,4.89Z"/><path d="M224.38,14.59A3.27,3.27,0,0,1,223.5,17a3,3,0,0,1-2.26.9,2.91,2.91,0,0,1-2.19-.85,3.23,3.23,0,0,1-.8-2.29V5.35h-4v9.07a8.13,8.13,0,0,0,1.49,5.3,5.13,5.13,0,0,0,4.19,1.79h.17a5.29,5.29,0,0,0,3-.81,4.86,4.86,0,0,0,1.82-2.39c.11-.3.2-.62.29-1V21h3.16V5.35h-4Z"/><polygon points="231.24 -0.01 231.24 2.99 233.19 2.99 233.19 21.02 237.2 21.02 237.2 2.99 237.2 -0.01 233.19 -0.01 231.24 -0.01"/><path d="M256.29,12.72a8.91,8.91,0,0,0-.86-3.87,7.1,7.1,0,0,0-2.58-2.91,7.66,7.66,0,0,0-4.25-1.11,8.06,8.06,0,0,0-3.4.68,7.16,7.16,0,0,0-2.46,1.81,8,8,0,0,0-1.5,2.59,9.32,9.32,0,0,0-.5,3v.55a9,9,0,0,0,.5,2.94,8.3,8.3,0,0,0,1.5,2.61,7.17,7.17,0,0,0,2.51,1.85,8.37,8.37,0,0,0,3.52.69,8.56,8.56,0,0,0,3.45-.66A6.56,6.56,0,0,0,254.71,19,6.68,6.68,0,0,0,256,16.21h-3.68a2.66,2.66,0,0,1-1.19,1.45,4.3,4.3,0,0,1-2.39.59,4.16,4.16,0,0,1-2.42-.65,3.86,3.86,0,0,1-1.41-1.78,6.51,6.51,0,0,1-.4-1.66h11.75Zm-9.94-4a4,4,0,0,1,2.25-.61,3.87,3.87,0,0,1,2.2.58,3.36,3.36,0,0,1,1.31,1.64,5.45,5.45,0,0,1,.34,1.35h-7.84a5.6,5.6,0,0,1,.35-1.22A3.68,3.68,0,0,1,246.35,8.75Z"/><polygon points="97.81 41.69 88.1 41.69 88.1 32.99 84.01 32.99 84.01 54.02 88.1 54.02 88.1 45.29 97.81 45.29 97.81 54.02 101.9 54.02 101.9 32.99 97.81 32.99 97.81 41.69"/><path d="M120.54,40.26a7.9,7.9,0,0,0-2.69-1.78,10.13,10.13,0,0,0-7.14,0,8,8,0,0,0-5,7.44v.61a8,8,0,0,0,.56,3,7.68,7.68,0,0,0,1.65,2.58,7.9,7.9,0,0,0,2.68,1.8,10.4,10.4,0,0,0,7.29,0,7.9,7.9,0,0,0,2.68-1.8,7.68,7.68,0,0,0,1.65-2.58,8,8,0,0,0,.57-3v-.61a8.32,8.32,0,0,0-.58-3.06A7.93,7.93,0,0,0,120.54,40.26Zm-2.26,8.47a4.07,4.07,0,0,1-1.52,1.76,5.06,5.06,0,0,1-5,0,4.25,4.25,0,0,1-1.54-1.76,5.83,5.83,0,0,1-.53-2.52,5.63,5.63,0,0,1,.55-2.55,4.22,4.22,0,0,1,1.57-1.75,4.87,4.87,0,0,1,4.86,0,4.13,4.13,0,0,1,1.56,1.75,5.9,5.9,0,0,1,.53,2.55A5.82,5.82,0,0,1,118.28,48.73Z"/><path d="M130.44,37.66a1.8,1.8,0,0,1,.47-1.34,1.84,1.84,0,0,1,1.37-.48h2.25V32.76h-2A6.55,6.55,0,0,0,128.18,34a5,5,0,0,0-1.49,4v.64h-2v2.94h2V54h3.75V41.58h4.35V38.64h-4.35Z"/><rect x="83.82" y="70.74" width="125" height="27" transform="translate(-3.92 7.2) rotate(-2.78)"/><path class="cls-5" d="M140.81,90.59a6.55,6.55,0,0,1-2.79-.54,4,4,0,0,1-1.76-1.5,3.88,3.88,0,0,1-.62-2.16h1.77a2.52,2.52,0,0,0,.31,1.19,2.41,2.41,0,0,0,1.07,1,4.36,4.36,0,0,0,2,.4,4.51,4.51,0,0,0,1.94-.36,2.53,2.53,0,0,0,1.12-.91,2.27,2.27,0,0,0,.36-1.24,1.62,1.62,0,0,0-.7-1.34,4,4,0,0,0-2.05-.65L140,84.34a4.64,4.64,0,0,1-2.79-1.08,3.15,3.15,0,0,1-1-2.47,3.77,3.77,0,0,1,.59-2.1,4,4,0,0,1,1.63-1.42,6,6,0,0,1,4.84,0,3.81,3.81,0,0,1,1.63,1.41,3.91,3.91,0,0,1,.58,2.17h-1.76a2.47,2.47,0,0,0-.3-1.19,2.26,2.26,0,0,0-.92-.92,3.29,3.29,0,0,0-1.64-.36,3.46,3.46,0,0,0-1.61.34,2.37,2.37,0,0,0-1,.89,2.34,2.34,0,0,0-.31,1.18,1.73,1.73,0,0,0,.56,1.28,2.55,2.55,0,0,0,1.65.65l1.46.13a6.82,6.82,0,0,1,2.33.56,3.66,3.66,0,0,1,1.51,1.23,3.08,3.08,0,0,1,.53,1.82,3.7,3.7,0,0,1-.64,2.15,4.27,4.27,0,0,1-1.82,1.45A6.6,6.6,0,0,1,140.81,90.59Z"/><path class="cls-5" d="M151.59,90.26,147,77.12h1.82l4.08,12-.86-.43h2.16l-.92.43,3.76-12h1.77l-4.23,13.14Z"/></svg>